<?xml version="1.0" encoding="UTF-8" standalone="no"?>
<svg width="24px" height="24px" viewBox="0 0 24 24" version="1.1" xmlns="http://www.w3.org/2000/svg" xmlns:xlink="http://www.w3.org/1999/xlink">
    <!-- Generator: Sketch 3.8.3 (29802) - http://www.bohemiancoding.com/sketch -->
    <title>icon-location-add</title>
    <desc>Created with Sketch.</desc>
    <defs></defs>
    <g id="Symbols" stroke="none" stroke-width="1" fill="none" fill-rule="evenodd">
        <g id="icon-location-add" fill="#000000">
            <g id="location-24px-glyph_pin-add" transform="translate(3.000000, 0.000000)">
                <path d="M9,0 C4.6,0 0,3.4 0,9 C0,14.3 8,22.4 8.3,22.7 C8.5,22.9 8.7,23 9,23 C9.3,23 9.5,22.9 9.7,22.7 C10,22.4 18,14.3 18,9 C18,3.4 13.4,0 9,0 L9,0 Z M12,10 L10,10 L10,12 C10,12.6 9.6,13 9,13 C8.4,13 8,12.6 8,12 L8,10 L6,10 C5.4,10 5,9.6 5,9 C5,8.4 5.4,8 6,8 L8,8 L8,6 C8,5.4 8.4,5 9,5 C9.6,5 10,5.4 10,6 L10,8 L12,8 C12.6,8 13,8.4 13,9 C13,9.6 12.6,10 12,10 L12,10 Z" id="Shape"></path>
            </g>
        </g>
    </g>
</svg>