<?xml version="1.0" encoding="UTF-8" standalone="no"?>
<svg width="24px" height="24px" viewBox="0 0 24 24" version="1.1" xmlns="http://www.w3.org/2000/svg" xmlns:xlink="http://www.w3.org/1999/xlink">
    <!-- Generator: Sketch 3.8.3 (29802) - http://www.bohemiancoding.com/sketch -->
    <title>icon-location-set</title>
    <desc>Created with Sketch.</desc>
    <defs></defs>
    <g id="Symbols" stroke="none" stroke-width="1" fill="none" fill-rule="evenodd">
        <g id="icon-location-set" fill="#000000">
            <g id="location-16px_crosshair" transform="translate(2.000000, 2.000000)">
                <g id="Group">
                    <path d="M10,0 C4.5,0 0,4.5 0,10 C0,15.5 4.5,20 10,20 C15.5,20 20,15.5 20,10 C20,4.5 15.5,0 10,0 L10,0 Z M11.25,17.375 L11.25,15 L8.75,15 L8.75,17.375 C5.625,16.875 3.125,14.375 2.625,11.25 L5,11.25 L5,8.75 L2.625,8.75 C3.125,5.625 5.625,3.125 8.75,2.625 L8.75,5 L11.25,5 L11.25,2.625 C14.375,3.125 16.875,5.625 17.375,8.75 L15,8.75 L15,11.25 L17.375,11.25 C16.875,14.375 14.375,16.875 11.25,17.375 L11.25,17.375 Z" id="Shape"></path>
                    <circle id="Oval" cx="10" cy="10" r="2.5"></circle>
                </g>
            </g>
        </g>
    </g>
</svg>