<?xml version="1.0" encoding="UTF-8" standalone="no"?>
<svg width="24px" height="24px" viewBox="0 0 24 24" version="1.1" xmlns="http://www.w3.org/2000/svg" xmlns:xlink="http://www.w3.org/1999/xlink">
    <!-- Generator: Sketch 3.8.3 (29802) - http://www.bohemiancoding.com/sketch -->
    <title>icon-search</title>
    <desc>Created with Sketch.</desc>
    <defs></defs>
    <g id="Symbols" stroke="none" stroke-width="1" fill="none" fill-rule="evenodd">
        <g id="icon-search" fill="#000000">
            <path d="M17.875,16.125 C19,14.625 19.625,12.875 19.625,10.875 C19.625,6 15.75,2 10.875,2 C6,2 2,6 2,10.875 C2,15.75 6,19.75 10.875,19.75 C12.875,19.75 14.75,19.125 16.125,18 L19.875,21.75 C20.125,22 20.5,22.125 20.75,22.125 C21,22.125 21.375,22 21.625,21.75 C22.125,21.25 22.125,20.5 21.625,20 L17.875,16.125 L17.875,16.125 Z M10.875,17.125 C7.375,17.125 4.5,14.375 4.5,10.875 C4.5,7.375 7.375,4.5 10.875,4.5 C14.375,4.5 17.25,7.375 17.25,10.875 C17.25,14.375 14.375,17.125 10.875,17.125 L10.875,17.125 Z" id="Shape"></path>
        </g>
    </g>
</svg>